<mxfile host="65bd71144e">
    <diagram id="mu81goWqQHMHFXWRfABM" name="PÃ¡gina-1">
        <mxGraphModel dx="520" dy="433" grid="1" gridSize="10" guides="1" tooltips="1" connect="1" arrows="1" fold="1" page="1" pageScale="1" pageWidth="827" pageHeight="1169" math="0" shadow="0">
            <root>
                <mxCell id="0"/>
                <mxCell id="1" parent="0"/>
                <mxCell id="aUl00CYh2js-aROb2SLF-17" value="" style="edgeStyle=orthogonalEdgeStyle;rounded=0;orthogonalLoop=1;jettySize=auto;html=1;fontSize=10;entryX=0.25;entryY=1;entryDx=0;entryDy=0;" parent="1" source="aUl00CYh2js-aROb2SLF-1" target="aUl00CYh2js-aROb2SLF-11" edge="1">
                    <mxGeometry relative="1" as="geometry">
                        <mxPoint x="495" y="660" as="targetPoint"/>
                        <Array as="points">
                            <mxPoint x="605" y="620"/>
                            <mxPoint x="605" y="620"/>
                        </Array>
                    </mxGeometry>
                </mxCell>
                <mxCell id="aUl00CYh2js-aROb2SLF-1" value="External Application (REST)" style="rounded=0;whiteSpace=wrap;html=1;" parent="1" vertex="1">
                    <mxGeometry x="575" y="630" width="120" height="60" as="geometry"/>
                </mxCell>
                <mxCell id="aUl00CYh2js-aROb2SLF-4" value="" style="edgeStyle=orthogonalEdgeStyle;rounded=0;orthogonalLoop=1;jettySize=auto;html=1;" parent="1" source="aUl00CYh2js-aROb2SLF-2" target="aUl00CYh2js-aROb2SLF-3" edge="1">
                    <mxGeometry relative="1" as="geometry"/>
                </mxCell>
                <mxCell id="aUl00CYh2js-aROb2SLF-2" value="Requisition (Rest)" style="rounded=0;whiteSpace=wrap;html=1;" parent="1" vertex="1">
                    <mxGeometry x="40" y="420" width="120" height="60" as="geometry"/>
                </mxCell>
                <mxCell id="aUl00CYh2js-aROb2SLF-6" value="" style="edgeStyle=orthogonalEdgeStyle;rounded=0;orthogonalLoop=1;jettySize=auto;html=1;" parent="1" source="aUl00CYh2js-aROb2SLF-3" target="aUl00CYh2js-aROb2SLF-5" edge="1">
                    <mxGeometry relative="1" as="geometry"/>
                </mxCell>
                <mxCell id="aUl00CYh2js-aROb2SLF-3" value="Redis Lock (Thread and Pod Safe)" style="rounded=0;whiteSpace=wrap;html=1;" parent="1" vertex="1">
                    <mxGeometry x="200" y="420" width="120" height="60" as="geometry"/>
                </mxCell>
                <mxCell id="aUl00CYh2js-aROb2SLF-8" value="" style="edgeStyle=orthogonalEdgeStyle;rounded=0;orthogonalLoop=1;jettySize=auto;html=1;fontSize=10;" parent="1" source="aUl00CYh2js-aROb2SLF-5" target="aUl00CYh2js-aROb2SLF-7" edge="1">
                    <mxGeometry relative="1" as="geometry"/>
                </mxCell>
                <mxCell id="aUl00CYh2js-aROb2SLF-5" value="Send Message to Kafka Topic (&lt;span style=&quot;color: rgb(205, 144, 105); background-color: rgb(30, 30, 30); font-family: &amp;quot;JetBrains Mono&amp;quot;, monospace;&quot;&gt;&lt;font style=&quot;font-size: 10px;&quot;&gt;mp-indicator-go.indicator-processor&lt;/font&gt;&lt;/span&gt;&lt;span style=&quot;background-color: initial;&quot;&gt;)&lt;/span&gt;" style="rounded=0;whiteSpace=wrap;html=1;" parent="1" vertex="1">
                    <mxGeometry x="360" y="420" width="180" height="60" as="geometry"/>
                </mxCell>
                <mxCell id="aUl00CYh2js-aROb2SLF-10" value="" style="edgeStyle=orthogonalEdgeStyle;rounded=0;orthogonalLoop=1;jettySize=auto;html=1;fontSize=10;entryX=0;entryY=0.5;entryDx=0;entryDy=0;" parent="1" source="aUl00CYh2js-aROb2SLF-7" target="2" edge="1">
                    <mxGeometry relative="1" as="geometry">
                        <mxPoint x="570" y="350" as="targetPoint"/>
                    </mxGeometry>
                </mxCell>
                <mxCell id="aUl00CYh2js-aROb2SLF-7" value="Kafka Cluster" style="whiteSpace=wrap;html=1;rounded=0;" parent="1" vertex="1">
                    <mxGeometry x="390" y="320" width="120" height="60" as="geometry"/>
                </mxCell>
                <mxCell id="aUl00CYh2js-aROb2SLF-12" value="" style="edgeStyle=orthogonalEdgeStyle;rounded=0;orthogonalLoop=1;jettySize=auto;html=1;fontSize=10;" parent="1" source="aUl00CYh2js-aROb2SLF-9" target="aUl00CYh2js-aROb2SLF-11" edge="1">
                    <mxGeometry relative="1" as="geometry"/>
                </mxCell>
                <mxCell id="aUl00CYh2js-aROb2SLF-9" value="Kafka Consumer (&lt;span style=&quot;color: rgb(205, 144, 105); font-family: &amp;quot;JetBrains Mono&amp;quot;, monospace; font-size: 10px; background-color: rgb(30, 30, 30);&quot;&gt;mp-indicator-go.indicator-processor&lt;/span&gt;)" style="whiteSpace=wrap;html=1;rounded=0;" parent="1" vertex="1">
                    <mxGeometry x="560" y="420" width="150" height="60" as="geometry"/>
                </mxCell>
                <mxCell id="aUl00CYh2js-aROb2SLF-14" value="" style="edgeStyle=orthogonalEdgeStyle;rounded=0;orthogonalLoop=1;jettySize=auto;html=1;fontSize=10;" parent="1" source="aUl00CYh2js-aROb2SLF-11" target="aUl00CYh2js-aROb2SLF-13" edge="1">
                    <mxGeometry relative="1" as="geometry"/>
                </mxCell>
                <mxCell id="aUl00CYh2js-aROb2SLF-15" value="" style="edgeStyle=orthogonalEdgeStyle;rounded=0;orthogonalLoop=1;jettySize=auto;html=1;fontSize=10;entryX=1;entryY=0.5;entryDx=0;entryDy=0;" parent="1" source="aUl00CYh2js-aROb2SLF-11" target="aUl00CYh2js-aROb2SLF-1" edge="1">
                    <mxGeometry relative="1" as="geometry"/>
                </mxCell>
                <mxCell id="aUl00CYh2js-aROb2SLF-11" value="Routine to Calculate the Indicator" style="whiteSpace=wrap;html=1;rounded=0;" parent="1" vertex="1">
                    <mxGeometry x="575" y="510" width="120" height="60" as="geometry"/>
                </mxCell>
                <mxCell id="5" value="" style="edgeStyle=none;html=1;" edge="1" parent="1" source="aUl00CYh2js-aROb2SLF-13" target="4">
                    <mxGeometry relative="1" as="geometry"/>
                </mxCell>
                <mxCell id="aUl00CYh2js-aROb2SLF-13" value="Persist Data on Database (By seller)" style="whiteSpace=wrap;html=1;rounded=0;" parent="1" vertex="1">
                    <mxGeometry x="390" y="510" width="120" height="60" as="geometry"/>
                </mxCell>
                <mxCell id="aUl00CYh2js-aROb2SLF-18" value="mp-indicator" style="shape=umlFrame;whiteSpace=wrap;html=1;fontSize=10;width=110;height=20;" parent="1" vertex="1">
                    <mxGeometry x="30" y="240" width="700" height="370" as="geometry"/>
                </mxCell>
                <mxCell id="aUl00CYh2js-aROb2SLF-19" value="external application" style="shape=umlFrame;whiteSpace=wrap;html=1;fontSize=10;width=110;height=20;" parent="1" vertex="1">
                    <mxGeometry x="30" y="620" width="700" height="90" as="geometry"/>
                </mxCell>
                <mxCell id="3" value="" style="edgeStyle=none;html=1;" edge="1" parent="1" source="2" target="aUl00CYh2js-aROb2SLF-9">
                    <mxGeometry relative="1" as="geometry"/>
                </mxCell>
                <mxCell id="2" value="Redis Lock (Thread and Pod Safe)" style="rounded=0;whiteSpace=wrap;html=1;" vertex="1" parent="1">
                    <mxGeometry x="575" y="320" width="120" height="60" as="geometry"/>
                </mxCell>
                <mxCell id="4" value="send notification through rabbitMQ" style="whiteSpace=wrap;html=1;rounded=0;" vertex="1" parent="1">
                    <mxGeometry x="190" y="510" width="120" height="60" as="geometry"/>
                </mxCell>
            </root>
        </mxGraphModel>
    </diagram>
</mxfile>